G04 #@! TF.FileFunction,Copper,L1,Top,Signal*
%FSLAX46Y46*%
G04 Gerber Fmt 4.6, Leading zero omitted, Abs format (unit mm)*
G04 Created by KiCad (PCBNEW 4.0.7) date Tuesday, December 19, 2017 'PMt' 12:55:26 PM*
%MOMM*%
%LPD*%
G01*
G04 APERTURE LIST*
%ADD10C,0.100000*%
%ADD11R,1.700000X1.700000*%
%ADD12O,1.700000X1.700000*%
%ADD13R,1.998980X1.998980*%
%ADD14C,2.340000*%
%ADD15R,2.400000X1.600000*%
%ADD16O,2.400000X1.600000*%
%ADD17C,0.600000*%
%ADD18C,0.250000*%
G04 APERTURE END LIST*
D10*
D11*
X162001200Y-72910700D03*
D12*
X162001200Y-75450700D03*
X162001200Y-77990700D03*
X162001200Y-80530700D03*
D11*
X112395000Y-72999600D03*
D12*
X112395000Y-75539600D03*
X112395000Y-78079600D03*
X112395000Y-80619600D03*
D10*
G36*
X141818360Y-64828420D02*
X141818360Y-67226180D01*
X138318240Y-66827400D01*
X138318240Y-65227200D01*
X141818360Y-64828420D01*
X141818360Y-64828420D01*
G37*
G36*
X133492240Y-67226180D02*
X133492240Y-64828420D01*
X136992360Y-65227200D01*
X136992360Y-66827400D01*
X133492240Y-67226180D01*
X133492240Y-67226180D01*
G37*
D13*
X142656560Y-66027300D03*
X132654040Y-66027300D03*
D10*
G36*
X141856460Y-69895720D02*
X141856460Y-72293480D01*
X138356340Y-71894700D01*
X138356340Y-70294500D01*
X141856460Y-69895720D01*
X141856460Y-69895720D01*
G37*
G36*
X133530340Y-72293480D02*
X133530340Y-69895720D01*
X137030460Y-70294500D01*
X137030460Y-71894700D01*
X133530340Y-72293480D01*
X133530340Y-72293480D01*
G37*
D13*
X142694660Y-71094600D03*
X132692140Y-71094600D03*
D10*
G36*
X119992140Y-72280780D02*
X119992140Y-69883020D01*
X123492260Y-70281800D01*
X123492260Y-71882000D01*
X119992140Y-72280780D01*
X119992140Y-72280780D01*
G37*
G36*
X128318260Y-69883020D02*
X128318260Y-72280780D01*
X124818140Y-71882000D01*
X124818140Y-70281800D01*
X128318260Y-69883020D01*
X128318260Y-69883020D01*
G37*
D13*
X119153940Y-71081900D03*
X129156460Y-71081900D03*
D10*
G36*
X119966740Y-77373480D02*
X119966740Y-74975720D01*
X123466860Y-75374500D01*
X123466860Y-76974700D01*
X119966740Y-77373480D01*
X119966740Y-77373480D01*
G37*
G36*
X128292860Y-74975720D02*
X128292860Y-77373480D01*
X124792740Y-76974700D01*
X124792740Y-75374500D01*
X128292860Y-74975720D01*
X128292860Y-74975720D01*
G37*
D13*
X119128540Y-76174600D03*
X129131060Y-76174600D03*
D10*
G36*
X119992140Y-82453480D02*
X119992140Y-80055720D01*
X123492260Y-80454500D01*
X123492260Y-82054700D01*
X119992140Y-82453480D01*
X119992140Y-82453480D01*
G37*
G36*
X128318260Y-80055720D02*
X128318260Y-82453480D01*
X124818140Y-82054700D01*
X124818140Y-80454500D01*
X128318260Y-80055720D01*
X128318260Y-80055720D01*
G37*
D13*
X119153940Y-81254600D03*
X129156460Y-81254600D03*
D10*
G36*
X147220940Y-72306180D02*
X147220940Y-69908420D01*
X150721060Y-70307200D01*
X150721060Y-71907400D01*
X147220940Y-72306180D01*
X147220940Y-72306180D01*
G37*
G36*
X155547060Y-69908420D02*
X155547060Y-72306180D01*
X152046940Y-71907400D01*
X152046940Y-70307200D01*
X155547060Y-69908420D01*
X155547060Y-69908420D01*
G37*
D13*
X146382740Y-71107300D03*
X156385260Y-71107300D03*
D10*
G36*
X147233640Y-77386180D02*
X147233640Y-74988420D01*
X150733760Y-75387200D01*
X150733760Y-76987400D01*
X147233640Y-77386180D01*
X147233640Y-77386180D01*
G37*
G36*
X155559760Y-74988420D02*
X155559760Y-77386180D01*
X152059640Y-76987400D01*
X152059640Y-75387200D01*
X155559760Y-74988420D01*
X155559760Y-74988420D01*
G37*
D13*
X146395440Y-76187300D03*
X156397960Y-76187300D03*
D10*
G36*
X147259040Y-82453480D02*
X147259040Y-80055720D01*
X150759160Y-80454500D01*
X150759160Y-82054700D01*
X147259040Y-82453480D01*
X147259040Y-82453480D01*
G37*
G36*
X155585160Y-80055720D02*
X155585160Y-82453480D01*
X152085040Y-82054700D01*
X152085040Y-80454500D01*
X155585160Y-80055720D01*
X155585160Y-80055720D01*
G37*
D13*
X146420840Y-81254600D03*
X156423360Y-81254600D03*
D14*
X140001000Y-91059000D03*
X137501000Y-88559000D03*
X135001000Y-91059000D03*
D15*
X133858000Y-75692000D03*
D16*
X141478000Y-83312000D03*
X133858000Y-78232000D03*
X141478000Y-80772000D03*
X133858000Y-80772000D03*
X141478000Y-78232000D03*
X133858000Y-83312000D03*
X141478000Y-75692000D03*
D17*
X157505400Y-83400900D03*
X141287500Y-73507600D03*
D18*
X162001200Y-72910700D02*
X161874200Y-72910700D01*
X161874200Y-72910700D02*
X154990800Y-66027300D01*
X154990800Y-66027300D02*
X142656560Y-66027300D01*
X142694660Y-71094600D02*
X142694660Y-72743060D01*
X144005300Y-78244700D02*
X141478000Y-80772000D01*
X144005300Y-74053700D02*
X144005300Y-78244700D01*
X142694660Y-72743060D02*
X144005300Y-74053700D01*
X142656560Y-66027300D02*
X142656560Y-71056500D01*
X142656560Y-71056500D02*
X142618460Y-71094600D01*
X142618460Y-71094600D02*
X140106400Y-71094600D01*
X140068300Y-66027300D02*
X142656560Y-66027300D01*
X160375600Y-80530700D02*
X162001200Y-80530700D01*
X157505400Y-83400900D02*
X160375600Y-80530700D01*
X140001000Y-91059000D02*
X140001000Y-84789000D01*
X140001000Y-84789000D02*
X141478000Y-83312000D01*
X137501000Y-88559000D02*
X137501000Y-79335000D01*
X137501000Y-79335000D02*
X133858000Y-75692000D01*
X112395000Y-72999600D02*
X140779500Y-72999600D01*
X140779500Y-72999600D02*
X141287500Y-73507600D01*
X153974800Y-75298300D02*
X156563060Y-75298300D01*
X154025600Y-71208900D02*
X156613860Y-71208900D01*
X112395000Y-78079600D02*
X125981460Y-78079600D01*
X125981460Y-78079600D02*
X129156460Y-81254600D01*
X126568200Y-81254600D02*
X129156460Y-81254600D01*
X112395000Y-80619600D02*
X114376200Y-80619600D01*
X131152900Y-78196440D02*
X129131060Y-76174600D01*
X131152900Y-82588100D02*
X131152900Y-78196440D01*
X129971800Y-83769200D02*
X131152900Y-82588100D01*
X117525800Y-83769200D02*
X129971800Y-83769200D01*
X114376200Y-80619600D02*
X117525800Y-83769200D01*
X126542800Y-76174600D02*
X129131060Y-76174600D01*
X126568200Y-71081900D02*
X129156460Y-71081900D01*
X146382740Y-71107300D02*
X146382740Y-72387460D01*
X146382740Y-72387460D02*
X144455302Y-74314898D01*
X144455302Y-74314898D02*
X144455302Y-79289062D01*
X144455302Y-79289062D02*
X146420840Y-81254600D01*
X149009100Y-81254600D02*
X146420840Y-81254600D01*
X149199600Y-71208900D02*
X146611340Y-71208900D01*
X119153940Y-81254600D02*
X121742200Y-81254600D01*
X121716800Y-76174600D02*
X119128540Y-76174600D01*
X119153940Y-71081900D02*
X121742200Y-71081900D01*
X132692140Y-71094600D02*
X135280400Y-71094600D01*
X135242300Y-66027300D02*
X132654040Y-66027300D01*
X132654040Y-66027300D02*
X132654040Y-71056500D01*
X132654040Y-71056500D02*
X132692140Y-71094600D01*
X156423360Y-81254600D02*
X154051000Y-81254600D01*
X154051000Y-81254600D02*
X148983700Y-76187300D01*
X153835100Y-81254600D02*
X156423360Y-81254600D01*
X149148800Y-75298300D02*
X146560540Y-75298300D01*
M02*
