G04 #@! TF.FileFunction,Soldermask,Top*
%FSLAX46Y46*%
G04 Gerber Fmt 4.6, Leading zero omitted, Abs format (unit mm)*
G04 Created by KiCad (PCBNEW 4.0.7) date Tuesday, December 19, 2017 'PMt' 12:55:26 PM*
%MOMM*%
%LPD*%
G01*
G04 APERTURE LIST*
%ADD10C,0.100000*%
%ADD11R,1.700000X1.700000*%
%ADD12O,1.700000X1.700000*%
%ADD13R,1.998980X1.998980*%
%ADD14C,2.340000*%
%ADD15R,2.400000X1.600000*%
%ADD16O,2.400000X1.600000*%
G04 APERTURE END LIST*
D10*
D11*
X162001200Y-72910700D03*
D12*
X162001200Y-75450700D03*
X162001200Y-77990700D03*
X162001200Y-80530700D03*
D11*
X112395000Y-72999600D03*
D12*
X112395000Y-75539600D03*
X112395000Y-78079600D03*
X112395000Y-80619600D03*
D10*
G36*
X141818360Y-64828420D02*
X141818360Y-67226180D01*
X138318240Y-66827400D01*
X138318240Y-65227200D01*
X141818360Y-64828420D01*
X141818360Y-64828420D01*
G37*
G36*
X133492240Y-67226180D02*
X133492240Y-64828420D01*
X136992360Y-65227200D01*
X136992360Y-66827400D01*
X133492240Y-67226180D01*
X133492240Y-67226180D01*
G37*
D13*
X142656560Y-66027300D03*
X132654040Y-66027300D03*
D10*
G36*
X141856460Y-69895720D02*
X141856460Y-72293480D01*
X138356340Y-71894700D01*
X138356340Y-70294500D01*
X141856460Y-69895720D01*
X141856460Y-69895720D01*
G37*
G36*
X133530340Y-72293480D02*
X133530340Y-69895720D01*
X137030460Y-70294500D01*
X137030460Y-71894700D01*
X133530340Y-72293480D01*
X133530340Y-72293480D01*
G37*
D13*
X142694660Y-71094600D03*
X132692140Y-71094600D03*
D10*
G36*
X119992140Y-72280780D02*
X119992140Y-69883020D01*
X123492260Y-70281800D01*
X123492260Y-71882000D01*
X119992140Y-72280780D01*
X119992140Y-72280780D01*
G37*
G36*
X128318260Y-69883020D02*
X128318260Y-72280780D01*
X124818140Y-71882000D01*
X124818140Y-70281800D01*
X128318260Y-69883020D01*
X128318260Y-69883020D01*
G37*
D13*
X119153940Y-71081900D03*
X129156460Y-71081900D03*
D10*
G36*
X119966740Y-77373480D02*
X119966740Y-74975720D01*
X123466860Y-75374500D01*
X123466860Y-76974700D01*
X119966740Y-77373480D01*
X119966740Y-77373480D01*
G37*
G36*
X128292860Y-74975720D02*
X128292860Y-77373480D01*
X124792740Y-76974700D01*
X124792740Y-75374500D01*
X128292860Y-74975720D01*
X128292860Y-74975720D01*
G37*
D13*
X119128540Y-76174600D03*
X129131060Y-76174600D03*
D10*
G36*
X119992140Y-82453480D02*
X119992140Y-80055720D01*
X123492260Y-80454500D01*
X123492260Y-82054700D01*
X119992140Y-82453480D01*
X119992140Y-82453480D01*
G37*
G36*
X128318260Y-80055720D02*
X128318260Y-82453480D01*
X124818140Y-82054700D01*
X124818140Y-80454500D01*
X128318260Y-80055720D01*
X128318260Y-80055720D01*
G37*
D13*
X119153940Y-81254600D03*
X129156460Y-81254600D03*
D10*
G36*
X147220940Y-72306180D02*
X147220940Y-69908420D01*
X150721060Y-70307200D01*
X150721060Y-71907400D01*
X147220940Y-72306180D01*
X147220940Y-72306180D01*
G37*
G36*
X155547060Y-69908420D02*
X155547060Y-72306180D01*
X152046940Y-71907400D01*
X152046940Y-70307200D01*
X155547060Y-69908420D01*
X155547060Y-69908420D01*
G37*
D13*
X146382740Y-71107300D03*
X156385260Y-71107300D03*
D10*
G36*
X147233640Y-77386180D02*
X147233640Y-74988420D01*
X150733760Y-75387200D01*
X150733760Y-76987400D01*
X147233640Y-77386180D01*
X147233640Y-77386180D01*
G37*
G36*
X155559760Y-74988420D02*
X155559760Y-77386180D01*
X152059640Y-76987400D01*
X152059640Y-75387200D01*
X155559760Y-74988420D01*
X155559760Y-74988420D01*
G37*
D13*
X146395440Y-76187300D03*
X156397960Y-76187300D03*
D10*
G36*
X147259040Y-82453480D02*
X147259040Y-80055720D01*
X150759160Y-80454500D01*
X150759160Y-82054700D01*
X147259040Y-82453480D01*
X147259040Y-82453480D01*
G37*
G36*
X155585160Y-80055720D02*
X155585160Y-82453480D01*
X152085040Y-82054700D01*
X152085040Y-80454500D01*
X155585160Y-80055720D01*
X155585160Y-80055720D01*
G37*
D13*
X146420840Y-81254600D03*
X156423360Y-81254600D03*
D14*
X140001000Y-91059000D03*
X137501000Y-88559000D03*
X135001000Y-91059000D03*
D15*
X133858000Y-75692000D03*
D16*
X141478000Y-83312000D03*
X133858000Y-78232000D03*
X141478000Y-80772000D03*
X133858000Y-80772000D03*
X141478000Y-78232000D03*
X133858000Y-83312000D03*
X141478000Y-75692000D03*
M02*
