G04 #@! TF.FileFunction,Copper,L2,Bot,Signal*
%FSLAX46Y46*%
G04 Gerber Fmt 4.6, Leading zero omitted, Abs format (unit mm)*
G04 Created by KiCad (PCBNEW 4.0.1-stable) date 12/13/2016 10:54:51 PM*
%MOMM*%
G01*
G04 APERTURE LIST*
%ADD10C,0.100000*%
%ADD11R,2.032000X1.727200*%
%ADD12O,2.032000X1.727200*%
%ADD13R,1.727200X2.032000*%
%ADD14O,1.727200X2.032000*%
%ADD15R,2.235200X2.235200*%
%ADD16O,1.600000X1.600000*%
%ADD17C,0.250000*%
G04 APERTURE END LIST*
D10*
D11*
X129413000Y-117729000D03*
D12*
X129413000Y-115189000D03*
X129413000Y-112649000D03*
X129413000Y-110109000D03*
D13*
X147929600Y-124028200D03*
D14*
X145389600Y-124028200D03*
X142849600Y-124028200D03*
D15*
X147243800Y-101600000D03*
D16*
X140970000Y-106299000D03*
X140970000Y-108839000D03*
X140970000Y-111379000D03*
X140970000Y-113919000D03*
X148590000Y-113919000D03*
X148590000Y-111379000D03*
X148590000Y-108839000D03*
X148590000Y-106299000D03*
D17*
X147929600Y-124028200D02*
X147929600Y-118110000D01*
X146862800Y-110566200D02*
X148590000Y-108839000D01*
X146862800Y-117043200D02*
X146862800Y-110566200D01*
X147929600Y-118110000D02*
X146862800Y-117043200D01*
X140970000Y-113919000D02*
X140970000Y-124282200D01*
X143840200Y-125577600D02*
X145389600Y-124028200D01*
X142265400Y-125577600D02*
X143840200Y-125577600D01*
X140970000Y-124282200D02*
X142265400Y-125577600D01*
X140970000Y-111379000D02*
X142392400Y-111379000D01*
X142849600Y-111836200D02*
X142849600Y-124028200D01*
X142392400Y-111379000D02*
X142849600Y-111836200D01*
X148590000Y-111379000D02*
X149301200Y-111379000D01*
X149301200Y-111379000D02*
X150418800Y-110261400D01*
X150418800Y-110261400D02*
X150418800Y-104775000D01*
X150418800Y-104775000D02*
X147243800Y-101600000D01*
M02*
