G04 #@! TF.FileFunction,Legend,Bot*
%FSLAX46Y46*%
G04 Gerber Fmt 4.6, Leading zero omitted, Abs format (unit mm)*
G04 Created by KiCad (PCBNEW 4.0.1-stable) date 12/13/2016 10:54:51 PM*
%MOMM*%
G01*
G04 APERTURE LIST*
%ADD10C,0.100000*%
%ADD11C,0.300000*%
G04 APERTURE END LIST*
D10*
D11*
X141050542Y-123841771D02*
X140550542Y-125341771D01*
X140050542Y-123841771D01*
X138764828Y-125341771D02*
X139621971Y-125341771D01*
X139193399Y-125341771D02*
X139193399Y-123841771D01*
X139336256Y-124056057D01*
X139479114Y-124198914D01*
X139621971Y-124270343D01*
X138121971Y-125198914D02*
X138050543Y-125270343D01*
X138121971Y-125341771D01*
X138193400Y-125270343D01*
X138121971Y-125198914D01*
X138121971Y-125341771D01*
X137121971Y-123841771D02*
X136979114Y-123841771D01*
X136836257Y-123913200D01*
X136764828Y-123984629D01*
X136693399Y-124127486D01*
X136621971Y-124413200D01*
X136621971Y-124770343D01*
X136693399Y-125056057D01*
X136764828Y-125198914D01*
X136836257Y-125270343D01*
X136979114Y-125341771D01*
X137121971Y-125341771D01*
X137264828Y-125270343D01*
X137336257Y-125198914D01*
X137407685Y-125056057D01*
X137479114Y-124770343D01*
X137479114Y-124413200D01*
X137407685Y-124127486D01*
X137336257Y-123984629D01*
X137264828Y-123913200D01*
X137121971Y-123841771D01*
X135979114Y-125198914D02*
X135907686Y-125270343D01*
X135979114Y-125341771D01*
X136050543Y-125270343D01*
X135979114Y-125198914D01*
X135979114Y-125341771D01*
X134979114Y-123841771D02*
X134836257Y-123841771D01*
X134693400Y-123913200D01*
X134621971Y-123984629D01*
X134550542Y-124127486D01*
X134479114Y-124413200D01*
X134479114Y-124770343D01*
X134550542Y-125056057D01*
X134621971Y-125198914D01*
X134693400Y-125270343D01*
X134836257Y-125341771D01*
X134979114Y-125341771D01*
X135121971Y-125270343D01*
X135193400Y-125198914D01*
X135264828Y-125056057D01*
X135336257Y-124770343D01*
X135336257Y-124413200D01*
X135264828Y-124127486D01*
X135193400Y-123984629D01*
X135121971Y-123913200D01*
X134979114Y-123841771D01*
X145573627Y-121098571D02*
X146287913Y-121098571D01*
X146359342Y-121812857D01*
X146287913Y-121741429D01*
X146145056Y-121670000D01*
X145787913Y-121670000D01*
X145645056Y-121741429D01*
X145573627Y-121812857D01*
X145502199Y-121955714D01*
X145502199Y-122312857D01*
X145573627Y-122455714D01*
X145645056Y-122527143D01*
X145787913Y-122598571D01*
X146145056Y-122598571D01*
X146287913Y-122527143D01*
X146359342Y-122455714D01*
X145073628Y-121098571D02*
X144573628Y-122598571D01*
X144073628Y-121098571D01*
X142430771Y-122027143D02*
X141287914Y-122027143D01*
X138787914Y-121598571D02*
X138787914Y-122598571D01*
X139145057Y-121027143D02*
X139502200Y-122098571D01*
X138573628Y-122098571D01*
X137502200Y-121812857D02*
X137287914Y-121884286D01*
X137216486Y-121955714D01*
X137145057Y-122098571D01*
X137145057Y-122312857D01*
X137216486Y-122455714D01*
X137287914Y-122527143D01*
X137430772Y-122598571D01*
X138002200Y-122598571D01*
X138002200Y-121098571D01*
X137502200Y-121098571D01*
X137359343Y-121170000D01*
X137287914Y-121241429D01*
X137216486Y-121384286D01*
X137216486Y-121527143D01*
X137287914Y-121670000D01*
X137359343Y-121741429D01*
X137502200Y-121812857D01*
X138002200Y-121812857D01*
X136502200Y-122598571D02*
X136502200Y-121598571D01*
X136502200Y-121098571D02*
X136573629Y-121170000D01*
X136502200Y-121241429D01*
X136430772Y-121170000D01*
X136502200Y-121098571D01*
X136502200Y-121241429D01*
X136002200Y-121598571D02*
X135430771Y-121598571D01*
X135787914Y-121098571D02*
X135787914Y-122384286D01*
X135716486Y-122527143D01*
X135573628Y-122598571D01*
X135430771Y-122598571D01*
X133787914Y-122598571D02*
X133787914Y-121098571D01*
X133430771Y-121098571D01*
X133216486Y-121170000D01*
X133073628Y-121312857D01*
X133002200Y-121455714D01*
X132930771Y-121741429D01*
X132930771Y-121955714D01*
X133002200Y-122241429D01*
X133073628Y-122384286D01*
X133216486Y-122527143D01*
X133430771Y-122598571D01*
X133787914Y-122598571D01*
X132359343Y-122170000D02*
X131645057Y-122170000D01*
X132502200Y-122598571D02*
X132002200Y-121098571D01*
X131502200Y-122598571D01*
X130145057Y-122455714D02*
X130216486Y-122527143D01*
X130430772Y-122598571D01*
X130573629Y-122598571D01*
X130787914Y-122527143D01*
X130930772Y-122384286D01*
X131002200Y-122241429D01*
X131073629Y-121955714D01*
X131073629Y-121741429D01*
X131002200Y-121455714D01*
X130930772Y-121312857D01*
X130787914Y-121170000D01*
X130573629Y-121098571D01*
X130430772Y-121098571D01*
X130216486Y-121170000D01*
X130145057Y-121241429D01*
D10*
G36*
X144028286Y-114151115D02*
X144028255Y-114084100D01*
X144027108Y-113874448D01*
X144023873Y-113704505D01*
X144017857Y-113563201D01*
X144008365Y-113439464D01*
X143994705Y-113322223D01*
X143976184Y-113200406D01*
X143971014Y-113169700D01*
X143873845Y-112683239D01*
X143753366Y-112233462D01*
X143605664Y-111810101D01*
X143426827Y-111402889D01*
X143277769Y-111123199D01*
X143277769Y-114225077D01*
X143274433Y-114454849D01*
X143263200Y-114659711D01*
X143242874Y-114852457D01*
X143212259Y-115045882D01*
X143170158Y-115252781D01*
X143141662Y-115376998D01*
X142998515Y-115873981D01*
X142810009Y-116351244D01*
X142578603Y-116806220D01*
X142306754Y-117236347D01*
X141996919Y-117639060D01*
X141651557Y-118011795D01*
X141273124Y-118351986D01*
X140864077Y-118657070D01*
X140426875Y-118924482D01*
X139963974Y-119151658D01*
X139477832Y-119336033D01*
X139293600Y-119392592D01*
X139032979Y-119462787D01*
X138793529Y-119515676D01*
X138560757Y-119553177D01*
X138320165Y-119577207D01*
X138057258Y-119589687D01*
X137782300Y-119592612D01*
X137584765Y-119591460D01*
X137426138Y-119588435D01*
X137294533Y-119582666D01*
X137178069Y-119573282D01*
X137064861Y-119559414D01*
X136943027Y-119540190D01*
X136855137Y-119524692D01*
X136333939Y-119405469D01*
X135833296Y-119240975D01*
X135355501Y-119032931D01*
X134902849Y-118783058D01*
X134477633Y-118493078D01*
X134082146Y-118164713D01*
X133718683Y-117799683D01*
X133389536Y-117399711D01*
X133097000Y-116966518D01*
X132852483Y-116520476D01*
X132716741Y-116227200D01*
X132603985Y-115943854D01*
X132509586Y-115656015D01*
X132428914Y-115349261D01*
X132357341Y-115009172D01*
X132343549Y-114935000D01*
X132326608Y-114808753D01*
X132313349Y-114643189D01*
X132303868Y-114449662D01*
X132298263Y-114239530D01*
X132296629Y-114024148D01*
X132299065Y-113814871D01*
X132305666Y-113623056D01*
X132316529Y-113460059D01*
X132330012Y-113347500D01*
X132441511Y-112804790D01*
X132594403Y-112291011D01*
X132789188Y-111804957D01*
X133026365Y-111345419D01*
X133306434Y-110911189D01*
X133380035Y-110810678D01*
X133717491Y-110401579D01*
X134087340Y-110029923D01*
X134486949Y-109697352D01*
X134913684Y-109405509D01*
X135364911Y-109156037D01*
X135837996Y-108950576D01*
X136330307Y-108790771D01*
X136783826Y-108688031D01*
X137191079Y-108626135D01*
X137572389Y-108594418D01*
X137942103Y-108592124D01*
X138239500Y-108610992D01*
X138777973Y-108685101D01*
X139295314Y-108805323D01*
X139791039Y-108971432D01*
X140264669Y-109183199D01*
X140715720Y-109440396D01*
X141143713Y-109742796D01*
X141548164Y-110090170D01*
X141717083Y-110255718D01*
X142071571Y-110652184D01*
X142382302Y-111074439D01*
X142649186Y-111522317D01*
X142872134Y-111995647D01*
X143051054Y-112494260D01*
X143181671Y-112998233D01*
X143208293Y-113126586D01*
X143228628Y-113236955D01*
X143243739Y-113340347D01*
X143254690Y-113447767D01*
X143262545Y-113570221D01*
X143268367Y-113718717D01*
X143273222Y-113904260D01*
X143274406Y-113957598D01*
X143277769Y-114225077D01*
X143277769Y-111123199D01*
X143212942Y-111001558D01*
X143032105Y-110705900D01*
X142877581Y-110475542D01*
X142721905Y-110265564D01*
X142554413Y-110062925D01*
X142364443Y-109854581D01*
X142190181Y-109676099D01*
X141807343Y-109320498D01*
X141412878Y-109009611D01*
X140998404Y-108737455D01*
X140555535Y-108498045D01*
X140505425Y-108473788D01*
X140215629Y-108341179D01*
X139942082Y-108230160D01*
X139671856Y-108136733D01*
X139392025Y-108056897D01*
X139089662Y-107986654D01*
X138751839Y-107922003D01*
X138684000Y-107910264D01*
X138563951Y-107894887D01*
X138404339Y-107881853D01*
X138216359Y-107871405D01*
X138011205Y-107863785D01*
X137800070Y-107859237D01*
X137594148Y-107858004D01*
X137404634Y-107860329D01*
X137242721Y-107866455D01*
X137121900Y-107876346D01*
X137019779Y-107890824D01*
X136884288Y-107913110D01*
X136731730Y-107940376D01*
X136578410Y-107969797D01*
X136550400Y-107975426D01*
X136000559Y-108112205D01*
X135471300Y-108295272D01*
X134964022Y-108523872D01*
X134480128Y-108797255D01*
X134021020Y-109114665D01*
X133588097Y-109475350D01*
X133368298Y-109685249D01*
X132988093Y-110101076D01*
X132649370Y-110545531D01*
X132353160Y-111016512D01*
X132100494Y-111511918D01*
X131892402Y-112029647D01*
X131729914Y-112567596D01*
X131614063Y-113123666D01*
X131584734Y-113322100D01*
X131563845Y-113531404D01*
X131550640Y-113775323D01*
X131545117Y-114038256D01*
X131547277Y-114304604D01*
X131557119Y-114558766D01*
X131574645Y-114785141D01*
X131584734Y-114871500D01*
X131684402Y-115435284D01*
X131831267Y-115981514D01*
X132024258Y-116508182D01*
X132262308Y-117013277D01*
X132544347Y-117494789D01*
X132869305Y-117950707D01*
X133236113Y-118379022D01*
X133643702Y-118777723D01*
X133679453Y-118809529D01*
X134005732Y-119074013D01*
X134369771Y-119326942D01*
X134758676Y-119560613D01*
X135159552Y-119767320D01*
X135559505Y-119939359D01*
X135589102Y-119950648D01*
X136106155Y-120119235D01*
X136638996Y-120241344D01*
X137182458Y-120316777D01*
X137731373Y-120345333D01*
X138280575Y-120326812D01*
X138824895Y-120261014D01*
X139359167Y-120147738D01*
X139521825Y-120102985D01*
X140055055Y-119922012D01*
X140565396Y-119696429D01*
X141050661Y-119428016D01*
X141508661Y-119118554D01*
X141937208Y-118769822D01*
X142334115Y-118383601D01*
X142697194Y-117961672D01*
X143024257Y-117505815D01*
X143313115Y-117017810D01*
X143313120Y-117017800D01*
X143502460Y-116626683D01*
X143669038Y-116208600D01*
X143806422Y-115781537D01*
X143908180Y-115363482D01*
X143912559Y-115341400D01*
X143950334Y-115143156D01*
X143979030Y-114976030D01*
X143999845Y-114826993D01*
X144013980Y-114683013D01*
X144022632Y-114531060D01*
X144027001Y-114358105D01*
X144028286Y-114151115D01*
X144028286Y-114151115D01*
X144028286Y-114151115D01*
G37*
X144028286Y-114151115D02*
X144028255Y-114084100D01*
X144027108Y-113874448D01*
X144023873Y-113704505D01*
X144017857Y-113563201D01*
X144008365Y-113439464D01*
X143994705Y-113322223D01*
X143976184Y-113200406D01*
X143971014Y-113169700D01*
X143873845Y-112683239D01*
X143753366Y-112233462D01*
X143605664Y-111810101D01*
X143426827Y-111402889D01*
X143277769Y-111123199D01*
X143277769Y-114225077D01*
X143274433Y-114454849D01*
X143263200Y-114659711D01*
X143242874Y-114852457D01*
X143212259Y-115045882D01*
X143170158Y-115252781D01*
X143141662Y-115376998D01*
X142998515Y-115873981D01*
X142810009Y-116351244D01*
X142578603Y-116806220D01*
X142306754Y-117236347D01*
X141996919Y-117639060D01*
X141651557Y-118011795D01*
X141273124Y-118351986D01*
X140864077Y-118657070D01*
X140426875Y-118924482D01*
X139963974Y-119151658D01*
X139477832Y-119336033D01*
X139293600Y-119392592D01*
X139032979Y-119462787D01*
X138793529Y-119515676D01*
X138560757Y-119553177D01*
X138320165Y-119577207D01*
X138057258Y-119589687D01*
X137782300Y-119592612D01*
X137584765Y-119591460D01*
X137426138Y-119588435D01*
X137294533Y-119582666D01*
X137178069Y-119573282D01*
X137064861Y-119559414D01*
X136943027Y-119540190D01*
X136855137Y-119524692D01*
X136333939Y-119405469D01*
X135833296Y-119240975D01*
X135355501Y-119032931D01*
X134902849Y-118783058D01*
X134477633Y-118493078D01*
X134082146Y-118164713D01*
X133718683Y-117799683D01*
X133389536Y-117399711D01*
X133097000Y-116966518D01*
X132852483Y-116520476D01*
X132716741Y-116227200D01*
X132603985Y-115943854D01*
X132509586Y-115656015D01*
X132428914Y-115349261D01*
X132357341Y-115009172D01*
X132343549Y-114935000D01*
X132326608Y-114808753D01*
X132313349Y-114643189D01*
X132303868Y-114449662D01*
X132298263Y-114239530D01*
X132296629Y-114024148D01*
X132299065Y-113814871D01*
X132305666Y-113623056D01*
X132316529Y-113460059D01*
X132330012Y-113347500D01*
X132441511Y-112804790D01*
X132594403Y-112291011D01*
X132789188Y-111804957D01*
X133026365Y-111345419D01*
X133306434Y-110911189D01*
X133380035Y-110810678D01*
X133717491Y-110401579D01*
X134087340Y-110029923D01*
X134486949Y-109697352D01*
X134913684Y-109405509D01*
X135364911Y-109156037D01*
X135837996Y-108950576D01*
X136330307Y-108790771D01*
X136783826Y-108688031D01*
X137191079Y-108626135D01*
X137572389Y-108594418D01*
X137942103Y-108592124D01*
X138239500Y-108610992D01*
X138777973Y-108685101D01*
X139295314Y-108805323D01*
X139791039Y-108971432D01*
X140264669Y-109183199D01*
X140715720Y-109440396D01*
X141143713Y-109742796D01*
X141548164Y-110090170D01*
X141717083Y-110255718D01*
X142071571Y-110652184D01*
X142382302Y-111074439D01*
X142649186Y-111522317D01*
X142872134Y-111995647D01*
X143051054Y-112494260D01*
X143181671Y-112998233D01*
X143208293Y-113126586D01*
X143228628Y-113236955D01*
X143243739Y-113340347D01*
X143254690Y-113447767D01*
X143262545Y-113570221D01*
X143268367Y-113718717D01*
X143273222Y-113904260D01*
X143274406Y-113957598D01*
X143277769Y-114225077D01*
X143277769Y-111123199D01*
X143212942Y-111001558D01*
X143032105Y-110705900D01*
X142877581Y-110475542D01*
X142721905Y-110265564D01*
X142554413Y-110062925D01*
X142364443Y-109854581D01*
X142190181Y-109676099D01*
X141807343Y-109320498D01*
X141412878Y-109009611D01*
X140998404Y-108737455D01*
X140555535Y-108498045D01*
X140505425Y-108473788D01*
X140215629Y-108341179D01*
X139942082Y-108230160D01*
X139671856Y-108136733D01*
X139392025Y-108056897D01*
X139089662Y-107986654D01*
X138751839Y-107922003D01*
X138684000Y-107910264D01*
X138563951Y-107894887D01*
X138404339Y-107881853D01*
X138216359Y-107871405D01*
X138011205Y-107863785D01*
X137800070Y-107859237D01*
X137594148Y-107858004D01*
X137404634Y-107860329D01*
X137242721Y-107866455D01*
X137121900Y-107876346D01*
X137019779Y-107890824D01*
X136884288Y-107913110D01*
X136731730Y-107940376D01*
X136578410Y-107969797D01*
X136550400Y-107975426D01*
X136000559Y-108112205D01*
X135471300Y-108295272D01*
X134964022Y-108523872D01*
X134480128Y-108797255D01*
X134021020Y-109114665D01*
X133588097Y-109475350D01*
X133368298Y-109685249D01*
X132988093Y-110101076D01*
X132649370Y-110545531D01*
X132353160Y-111016512D01*
X132100494Y-111511918D01*
X131892402Y-112029647D01*
X131729914Y-112567596D01*
X131614063Y-113123666D01*
X131584734Y-113322100D01*
X131563845Y-113531404D01*
X131550640Y-113775323D01*
X131545117Y-114038256D01*
X131547277Y-114304604D01*
X131557119Y-114558766D01*
X131574645Y-114785141D01*
X131584734Y-114871500D01*
X131684402Y-115435284D01*
X131831267Y-115981514D01*
X132024258Y-116508182D01*
X132262308Y-117013277D01*
X132544347Y-117494789D01*
X132869305Y-117950707D01*
X133236113Y-118379022D01*
X133643702Y-118777723D01*
X133679453Y-118809529D01*
X134005732Y-119074013D01*
X134369771Y-119326942D01*
X134758676Y-119560613D01*
X135159552Y-119767320D01*
X135559505Y-119939359D01*
X135589102Y-119950648D01*
X136106155Y-120119235D01*
X136638996Y-120241344D01*
X137182458Y-120316777D01*
X137731373Y-120345333D01*
X138280575Y-120326812D01*
X138824895Y-120261014D01*
X139359167Y-120147738D01*
X139521825Y-120102985D01*
X140055055Y-119922012D01*
X140565396Y-119696429D01*
X141050661Y-119428016D01*
X141508661Y-119118554D01*
X141937208Y-118769822D01*
X142334115Y-118383601D01*
X142697194Y-117961672D01*
X143024257Y-117505815D01*
X143313115Y-117017810D01*
X143313120Y-117017800D01*
X143502460Y-116626683D01*
X143669038Y-116208600D01*
X143806422Y-115781537D01*
X143908180Y-115363482D01*
X143912559Y-115341400D01*
X143950334Y-115143156D01*
X143979030Y-114976030D01*
X143999845Y-114826993D01*
X144013980Y-114683013D01*
X144022632Y-114531060D01*
X144027001Y-114358105D01*
X144028286Y-114151115D01*
X144028286Y-114151115D01*
G36*
X141801011Y-117163999D02*
X141421324Y-116347950D01*
X141329017Y-116149609D01*
X141239923Y-115958275D01*
X141157212Y-115780745D01*
X141084051Y-115623813D01*
X141023610Y-115494278D01*
X140979055Y-115398935D01*
X140958039Y-115354100D01*
X140795461Y-115008023D01*
X140644263Y-114685475D01*
X140498736Y-114374223D01*
X140353177Y-114062034D01*
X140201878Y-113736676D01*
X140039134Y-113385917D01*
X139915431Y-113118900D01*
X139821067Y-112915186D01*
X139728803Y-112716147D01*
X139641961Y-112528939D01*
X139563862Y-112360714D01*
X139497826Y-112218629D01*
X139447175Y-112109837D01*
X139420206Y-112052100D01*
X139359408Y-111922320D01*
X139292736Y-111779989D01*
X139232214Y-111650773D01*
X139217943Y-111620300D01*
X139179645Y-111538575D01*
X139124200Y-111420335D01*
X139056052Y-111275048D01*
X138979641Y-111112185D01*
X138899410Y-110941215D01*
X138854534Y-110845600D01*
X138760824Y-110645523D01*
X138653801Y-110416319D01*
X138541392Y-110175009D01*
X138431524Y-109938613D01*
X138332124Y-109724153D01*
X138310412Y-109677200D01*
X138034536Y-109080300D01*
X137929415Y-109066152D01*
X137824293Y-109052003D01*
X137678379Y-109370220D01*
X137606803Y-109525366D01*
X137525338Y-109700450D01*
X137444930Y-109872021D01*
X137387301Y-109993969D01*
X137262396Y-110257736D01*
X137123698Y-110552143D01*
X136978510Y-110861619D01*
X136834137Y-111170593D01*
X136697880Y-111463491D01*
X136678546Y-111505179D01*
X136496414Y-111898058D01*
X136818829Y-112597379D01*
X136899938Y-112772769D01*
X136974597Y-112933183D01*
X137040066Y-113072818D01*
X137093608Y-113185872D01*
X137132484Y-113266542D01*
X137153957Y-113309025D01*
X137156971Y-113313936D01*
X137170936Y-113295909D01*
X137203424Y-113236853D01*
X137251872Y-113141953D01*
X137313714Y-113016397D01*
X137386387Y-112865371D01*
X137467328Y-112694062D01*
X137531295Y-112556729D01*
X137617031Y-112373179D01*
X137696734Y-112205616D01*
X137767782Y-112059317D01*
X137827554Y-111939556D01*
X137873429Y-111851608D01*
X137902786Y-111800747D01*
X137912295Y-111790074D01*
X137920336Y-111797405D01*
X137933567Y-111817217D01*
X137953368Y-111852394D01*
X137981116Y-111905818D01*
X138018191Y-111980374D01*
X138065972Y-112078945D01*
X138125838Y-112204414D01*
X138199167Y-112359666D01*
X138287337Y-112547584D01*
X138391729Y-112771052D01*
X138513721Y-113032952D01*
X138654691Y-113336169D01*
X138760225Y-113563400D01*
X138865661Y-113790343D01*
X138969846Y-114014311D01*
X139069686Y-114228674D01*
X139162087Y-114426803D01*
X139243958Y-114602067D01*
X139312205Y-114747838D01*
X139363735Y-114857486D01*
X139382363Y-114896900D01*
X139431552Y-115001096D01*
X139497750Y-115141990D01*
X139576567Y-115310207D01*
X139663618Y-115496373D01*
X139754513Y-115691112D01*
X139844865Y-115885048D01*
X139851916Y-115900200D01*
X140012587Y-116245472D01*
X140153331Y-116547884D01*
X140275642Y-116810640D01*
X140381013Y-117036946D01*
X140470938Y-117230004D01*
X140546910Y-117393019D01*
X140610422Y-117529195D01*
X140662967Y-117641735D01*
X140706040Y-117733845D01*
X140741133Y-117808728D01*
X140769740Y-117869587D01*
X140778660Y-117888515D01*
X140871859Y-118086129D01*
X140977100Y-118002815D01*
X141207542Y-117803310D01*
X141447343Y-117563163D01*
X141593085Y-117402050D01*
X141801011Y-117163999D01*
X141801011Y-117163999D01*
X141801011Y-117163999D01*
G37*
X141801011Y-117163999D02*
X141421324Y-116347950D01*
X141329017Y-116149609D01*
X141239923Y-115958275D01*
X141157212Y-115780745D01*
X141084051Y-115623813D01*
X141023610Y-115494278D01*
X140979055Y-115398935D01*
X140958039Y-115354100D01*
X140795461Y-115008023D01*
X140644263Y-114685475D01*
X140498736Y-114374223D01*
X140353177Y-114062034D01*
X140201878Y-113736676D01*
X140039134Y-113385917D01*
X139915431Y-113118900D01*
X139821067Y-112915186D01*
X139728803Y-112716147D01*
X139641961Y-112528939D01*
X139563862Y-112360714D01*
X139497826Y-112218629D01*
X139447175Y-112109837D01*
X139420206Y-112052100D01*
X139359408Y-111922320D01*
X139292736Y-111779989D01*
X139232214Y-111650773D01*
X139217943Y-111620300D01*
X139179645Y-111538575D01*
X139124200Y-111420335D01*
X139056052Y-111275048D01*
X138979641Y-111112185D01*
X138899410Y-110941215D01*
X138854534Y-110845600D01*
X138760824Y-110645523D01*
X138653801Y-110416319D01*
X138541392Y-110175009D01*
X138431524Y-109938613D01*
X138332124Y-109724153D01*
X138310412Y-109677200D01*
X138034536Y-109080300D01*
X137929415Y-109066152D01*
X137824293Y-109052003D01*
X137678379Y-109370220D01*
X137606803Y-109525366D01*
X137525338Y-109700450D01*
X137444930Y-109872021D01*
X137387301Y-109993969D01*
X137262396Y-110257736D01*
X137123698Y-110552143D01*
X136978510Y-110861619D01*
X136834137Y-111170593D01*
X136697880Y-111463491D01*
X136678546Y-111505179D01*
X136496414Y-111898058D01*
X136818829Y-112597379D01*
X136899938Y-112772769D01*
X136974597Y-112933183D01*
X137040066Y-113072818D01*
X137093608Y-113185872D01*
X137132484Y-113266542D01*
X137153957Y-113309025D01*
X137156971Y-113313936D01*
X137170936Y-113295909D01*
X137203424Y-113236853D01*
X137251872Y-113141953D01*
X137313714Y-113016397D01*
X137386387Y-112865371D01*
X137467328Y-112694062D01*
X137531295Y-112556729D01*
X137617031Y-112373179D01*
X137696734Y-112205616D01*
X137767782Y-112059317D01*
X137827554Y-111939556D01*
X137873429Y-111851608D01*
X137902786Y-111800747D01*
X137912295Y-111790074D01*
X137920336Y-111797405D01*
X137933567Y-111817217D01*
X137953368Y-111852394D01*
X137981116Y-111905818D01*
X138018191Y-111980374D01*
X138065972Y-112078945D01*
X138125838Y-112204414D01*
X138199167Y-112359666D01*
X138287337Y-112547584D01*
X138391729Y-112771052D01*
X138513721Y-113032952D01*
X138654691Y-113336169D01*
X138760225Y-113563400D01*
X138865661Y-113790343D01*
X138969846Y-114014311D01*
X139069686Y-114228674D01*
X139162087Y-114426803D01*
X139243958Y-114602067D01*
X139312205Y-114747838D01*
X139363735Y-114857486D01*
X139382363Y-114896900D01*
X139431552Y-115001096D01*
X139497750Y-115141990D01*
X139576567Y-115310207D01*
X139663618Y-115496373D01*
X139754513Y-115691112D01*
X139844865Y-115885048D01*
X139851916Y-115900200D01*
X140012587Y-116245472D01*
X140153331Y-116547884D01*
X140275642Y-116810640D01*
X140381013Y-117036946D01*
X140470938Y-117230004D01*
X140546910Y-117393019D01*
X140610422Y-117529195D01*
X140662967Y-117641735D01*
X140706040Y-117733845D01*
X140741133Y-117808728D01*
X140769740Y-117869587D01*
X140778660Y-117888515D01*
X140871859Y-118086129D01*
X140977100Y-118002815D01*
X141207542Y-117803310D01*
X141447343Y-117563163D01*
X141593085Y-117402050D01*
X141801011Y-117163999D01*
X141801011Y-117163999D01*
G36*
X139345918Y-115898892D02*
X139050381Y-115270896D01*
X138970286Y-115100274D01*
X138895490Y-114940133D01*
X138829291Y-114797602D01*
X138774990Y-114679809D01*
X138735887Y-114593883D01*
X138715569Y-114547650D01*
X138687094Y-114487971D01*
X138663763Y-114454809D01*
X138658883Y-114452400D01*
X138644450Y-114474601D01*
X138611486Y-114537620D01*
X138562599Y-114636083D01*
X138500397Y-114764618D01*
X138427491Y-114917849D01*
X138346488Y-115090404D01*
X138287612Y-115217120D01*
X138202421Y-115399810D01*
X138123290Y-115566797D01*
X138052862Y-115712715D01*
X137993781Y-115832196D01*
X137948688Y-115919870D01*
X137920226Y-115970371D01*
X137911693Y-115980738D01*
X137897116Y-115958164D01*
X137863290Y-115893681D01*
X137812250Y-115791504D01*
X137746030Y-115655849D01*
X137666665Y-115490934D01*
X137576191Y-115300973D01*
X137476643Y-115090183D01*
X137370055Y-114862780D01*
X137312710Y-114739769D01*
X137192254Y-114480960D01*
X137069178Y-114216641D01*
X136946883Y-113954109D01*
X136828772Y-113700665D01*
X136718247Y-113463606D01*
X136618711Y-113250230D01*
X136533564Y-113067837D01*
X136466209Y-112923725D01*
X136462455Y-112915700D01*
X136396219Y-112773895D01*
X136312063Y-112593343D01*
X136213406Y-112381399D01*
X136103666Y-112145418D01*
X135986262Y-111892755D01*
X135864613Y-111630764D01*
X135742137Y-111366799D01*
X135622254Y-111108216D01*
X135618261Y-111099600D01*
X135509968Y-110866018D01*
X135408240Y-110646815D01*
X135315051Y-110446226D01*
X135232371Y-110268484D01*
X135162174Y-110117823D01*
X135106430Y-109998479D01*
X135067111Y-109914684D01*
X135046190Y-109870673D01*
X135043250Y-109864912D01*
X135022110Y-109876860D01*
X134970649Y-109910868D01*
X134899971Y-109959596D01*
X134899400Y-109959996D01*
X134784795Y-110044404D01*
X134661500Y-110142213D01*
X134535868Y-110247591D01*
X134414255Y-110354704D01*
X134303016Y-110457720D01*
X134208507Y-110550804D01*
X134137082Y-110628125D01*
X134095096Y-110683848D01*
X134086600Y-110706042D01*
X134097097Y-110736150D01*
X134126854Y-110806361D01*
X134173272Y-110910926D01*
X134233748Y-111044092D01*
X134305683Y-111200108D01*
X134386475Y-111373223D01*
X134432685Y-111471395D01*
X134528507Y-111674765D01*
X134640156Y-111912378D01*
X134762085Y-112172390D01*
X134888749Y-112442958D01*
X135014601Y-112712240D01*
X135134096Y-112968392D01*
X135204178Y-113118900D01*
X135286688Y-113296128D01*
X135384029Y-113505005D01*
X135493845Y-113740490D01*
X135613781Y-113997540D01*
X135741481Y-114271115D01*
X135874588Y-114556174D01*
X136010746Y-114847673D01*
X136147600Y-115140573D01*
X136282792Y-115429832D01*
X136413968Y-115710407D01*
X136538771Y-115977258D01*
X136654845Y-116225343D01*
X136759834Y-116449621D01*
X136851381Y-116645050D01*
X136927132Y-116806588D01*
X136984729Y-116929195D01*
X137002530Y-116967000D01*
X137051950Y-117072215D01*
X137117315Y-117211930D01*
X137194916Y-117378171D01*
X137281043Y-117562959D01*
X137371988Y-117758318D01*
X137464041Y-117956272D01*
X137553493Y-118148844D01*
X137636635Y-118328057D01*
X137709758Y-118485934D01*
X137769153Y-118614498D01*
X137811110Y-118705773D01*
X137814062Y-118712233D01*
X137857374Y-118804303D01*
X137893423Y-118875826D01*
X137916831Y-118916363D01*
X137922000Y-118921750D01*
X137938615Y-118901267D01*
X137967515Y-118847670D01*
X137989007Y-118802117D01*
X138021638Y-118730441D01*
X138071683Y-118621565D01*
X138136744Y-118480638D01*
X138214425Y-118312808D01*
X138302327Y-118123225D01*
X138398054Y-117917037D01*
X138499207Y-117699392D01*
X138603389Y-117475439D01*
X138708204Y-117250327D01*
X138811253Y-117029204D01*
X138910139Y-116817219D01*
X139002465Y-116619520D01*
X139085834Y-116441256D01*
X139157847Y-116287576D01*
X139216107Y-116163628D01*
X139258218Y-116074560D01*
X139281781Y-116025522D01*
X139283834Y-116021409D01*
X139345918Y-115898892D01*
X139345918Y-115898892D01*
X139345918Y-115898892D01*
G37*
X139345918Y-115898892D02*
X139050381Y-115270896D01*
X138970286Y-115100274D01*
X138895490Y-114940133D01*
X138829291Y-114797602D01*
X138774990Y-114679809D01*
X138735887Y-114593883D01*
X138715569Y-114547650D01*
X138687094Y-114487971D01*
X138663763Y-114454809D01*
X138658883Y-114452400D01*
X138644450Y-114474601D01*
X138611486Y-114537620D01*
X138562599Y-114636083D01*
X138500397Y-114764618D01*
X138427491Y-114917849D01*
X138346488Y-115090404D01*
X138287612Y-115217120D01*
X138202421Y-115399810D01*
X138123290Y-115566797D01*
X138052862Y-115712715D01*
X137993781Y-115832196D01*
X137948688Y-115919870D01*
X137920226Y-115970371D01*
X137911693Y-115980738D01*
X137897116Y-115958164D01*
X137863290Y-115893681D01*
X137812250Y-115791504D01*
X137746030Y-115655849D01*
X137666665Y-115490934D01*
X137576191Y-115300973D01*
X137476643Y-115090183D01*
X137370055Y-114862780D01*
X137312710Y-114739769D01*
X137192254Y-114480960D01*
X137069178Y-114216641D01*
X136946883Y-113954109D01*
X136828772Y-113700665D01*
X136718247Y-113463606D01*
X136618711Y-113250230D01*
X136533564Y-113067837D01*
X136466209Y-112923725D01*
X136462455Y-112915700D01*
X136396219Y-112773895D01*
X136312063Y-112593343D01*
X136213406Y-112381399D01*
X136103666Y-112145418D01*
X135986262Y-111892755D01*
X135864613Y-111630764D01*
X135742137Y-111366799D01*
X135622254Y-111108216D01*
X135618261Y-111099600D01*
X135509968Y-110866018D01*
X135408240Y-110646815D01*
X135315051Y-110446226D01*
X135232371Y-110268484D01*
X135162174Y-110117823D01*
X135106430Y-109998479D01*
X135067111Y-109914684D01*
X135046190Y-109870673D01*
X135043250Y-109864912D01*
X135022110Y-109876860D01*
X134970649Y-109910868D01*
X134899971Y-109959596D01*
X134899400Y-109959996D01*
X134784795Y-110044404D01*
X134661500Y-110142213D01*
X134535868Y-110247591D01*
X134414255Y-110354704D01*
X134303016Y-110457720D01*
X134208507Y-110550804D01*
X134137082Y-110628125D01*
X134095096Y-110683848D01*
X134086600Y-110706042D01*
X134097097Y-110736150D01*
X134126854Y-110806361D01*
X134173272Y-110910926D01*
X134233748Y-111044092D01*
X134305683Y-111200108D01*
X134386475Y-111373223D01*
X134432685Y-111471395D01*
X134528507Y-111674765D01*
X134640156Y-111912378D01*
X134762085Y-112172390D01*
X134888749Y-112442958D01*
X135014601Y-112712240D01*
X135134096Y-112968392D01*
X135204178Y-113118900D01*
X135286688Y-113296128D01*
X135384029Y-113505005D01*
X135493845Y-113740490D01*
X135613781Y-113997540D01*
X135741481Y-114271115D01*
X135874588Y-114556174D01*
X136010746Y-114847673D01*
X136147600Y-115140573D01*
X136282792Y-115429832D01*
X136413968Y-115710407D01*
X136538771Y-115977258D01*
X136654845Y-116225343D01*
X136759834Y-116449621D01*
X136851381Y-116645050D01*
X136927132Y-116806588D01*
X136984729Y-116929195D01*
X137002530Y-116967000D01*
X137051950Y-117072215D01*
X137117315Y-117211930D01*
X137194916Y-117378171D01*
X137281043Y-117562959D01*
X137371988Y-117758318D01*
X137464041Y-117956272D01*
X137553493Y-118148844D01*
X137636635Y-118328057D01*
X137709758Y-118485934D01*
X137769153Y-118614498D01*
X137811110Y-118705773D01*
X137814062Y-118712233D01*
X137857374Y-118804303D01*
X137893423Y-118875826D01*
X137916831Y-118916363D01*
X137922000Y-118921750D01*
X137938615Y-118901267D01*
X137967515Y-118847670D01*
X137989007Y-118802117D01*
X138021638Y-118730441D01*
X138071683Y-118621565D01*
X138136744Y-118480638D01*
X138214425Y-118312808D01*
X138302327Y-118123225D01*
X138398054Y-117917037D01*
X138499207Y-117699392D01*
X138603389Y-117475439D01*
X138708204Y-117250327D01*
X138811253Y-117029204D01*
X138910139Y-116817219D01*
X139002465Y-116619520D01*
X139085834Y-116441256D01*
X139157847Y-116287576D01*
X139216107Y-116163628D01*
X139258218Y-116074560D01*
X139281781Y-116025522D01*
X139283834Y-116021409D01*
X139345918Y-115898892D01*
X139345918Y-115898892D01*
G36*
X141663754Y-110899857D02*
X141656210Y-110869390D01*
X141630702Y-110828509D01*
X141582419Y-110770582D01*
X141506549Y-110688977D01*
X141423028Y-110602465D01*
X141325299Y-110505342D01*
X141215520Y-110401662D01*
X141101362Y-110298083D01*
X140990495Y-110201262D01*
X140890590Y-110117856D01*
X140809319Y-110054522D01*
X140754352Y-110017917D01*
X140743787Y-110013014D01*
X140726654Y-110032153D01*
X140692566Y-110089588D01*
X140645798Y-110177461D01*
X140590626Y-110287918D01*
X140564047Y-110343214D01*
X140484490Y-110511252D01*
X140399867Y-110690997D01*
X140312857Y-110876660D01*
X140226141Y-111062454D01*
X140142397Y-111242591D01*
X140064305Y-111411282D01*
X139994545Y-111562740D01*
X139935796Y-111691178D01*
X139890739Y-111790807D01*
X139862051Y-111855840D01*
X139852400Y-111880367D01*
X139862743Y-111906164D01*
X139892051Y-111972316D01*
X139937744Y-112073176D01*
X139997242Y-112203096D01*
X140067962Y-112356427D01*
X140147324Y-112527521D01*
X140188869Y-112616741D01*
X140525339Y-113338413D01*
X140627019Y-113126520D01*
X140672670Y-113030753D01*
X140733630Y-112901962D01*
X140803757Y-112753171D01*
X140876908Y-112597404D01*
X140924348Y-112496064D01*
X141062816Y-112200018D01*
X141183589Y-111942228D01*
X141290346Y-111714868D01*
X141386762Y-111510108D01*
X141476516Y-111320121D01*
X141505765Y-111258350D01*
X141558912Y-111145334D01*
X141605711Y-111044282D01*
X141640821Y-110966820D01*
X141658147Y-110926543D01*
X141663754Y-110899857D01*
X141663754Y-110899857D01*
X141663754Y-110899857D01*
G37*
X141663754Y-110899857D02*
X141656210Y-110869390D01*
X141630702Y-110828509D01*
X141582419Y-110770582D01*
X141506549Y-110688977D01*
X141423028Y-110602465D01*
X141325299Y-110505342D01*
X141215520Y-110401662D01*
X141101362Y-110298083D01*
X140990495Y-110201262D01*
X140890590Y-110117856D01*
X140809319Y-110054522D01*
X140754352Y-110017917D01*
X140743787Y-110013014D01*
X140726654Y-110032153D01*
X140692566Y-110089588D01*
X140645798Y-110177461D01*
X140590626Y-110287918D01*
X140564047Y-110343214D01*
X140484490Y-110511252D01*
X140399867Y-110690997D01*
X140312857Y-110876660D01*
X140226141Y-111062454D01*
X140142397Y-111242591D01*
X140064305Y-111411282D01*
X139994545Y-111562740D01*
X139935796Y-111691178D01*
X139890739Y-111790807D01*
X139862051Y-111855840D01*
X139852400Y-111880367D01*
X139862743Y-111906164D01*
X139892051Y-111972316D01*
X139937744Y-112073176D01*
X139997242Y-112203096D01*
X140067962Y-112356427D01*
X140147324Y-112527521D01*
X140188869Y-112616741D01*
X140525339Y-113338413D01*
X140627019Y-113126520D01*
X140672670Y-113030753D01*
X140733630Y-112901962D01*
X140803757Y-112753171D01*
X140876908Y-112597404D01*
X140924348Y-112496064D01*
X141062816Y-112200018D01*
X141183589Y-111942228D01*
X141290346Y-111714868D01*
X141386762Y-111510108D01*
X141476516Y-111320121D01*
X141505765Y-111258350D01*
X141558912Y-111145334D01*
X141605711Y-111044282D01*
X141640821Y-110966820D01*
X141658147Y-110926543D01*
X141663754Y-110899857D01*
X141663754Y-110899857D01*
G36*
X135985927Y-115882342D02*
X135658380Y-115175655D01*
X135576624Y-114999707D01*
X135501535Y-114838958D01*
X135435812Y-114699114D01*
X135382151Y-114585882D01*
X135343249Y-114504970D01*
X135321803Y-114462084D01*
X135318652Y-114456787D01*
X135303797Y-114473258D01*
X135272847Y-114527240D01*
X135230564Y-114609922D01*
X135189286Y-114696153D01*
X135099302Y-114888973D01*
X135015369Y-115068010D01*
X134929903Y-115249373D01*
X134835317Y-115449174D01*
X134759870Y-115608100D01*
X134709436Y-115714908D01*
X134642365Y-115857928D01*
X134563283Y-116027237D01*
X134476821Y-116212914D01*
X134387604Y-116405036D01*
X134309684Y-116573300D01*
X134229362Y-116746759D01*
X134154452Y-116908057D01*
X134088038Y-117050592D01*
X134033205Y-117167761D01*
X133993034Y-117252962D01*
X133970611Y-117299589D01*
X133969020Y-117302749D01*
X133956658Y-117330153D01*
X133953964Y-117355555D01*
X133965576Y-117385598D01*
X133996128Y-117426924D01*
X134050255Y-117486176D01*
X134132593Y-117569997D01*
X134208296Y-117645649D01*
X134324995Y-117758702D01*
X134450026Y-117874265D01*
X134569775Y-117980080D01*
X134670626Y-118063886D01*
X134686933Y-118076622D01*
X134890999Y-118233743D01*
X135280872Y-117390822D01*
X135378248Y-117180519D01*
X135476073Y-116969666D01*
X135570541Y-116766439D01*
X135657844Y-116579013D01*
X135734175Y-116415564D01*
X135795727Y-116284268D01*
X135828336Y-116215121D01*
X135985927Y-115882342D01*
X135985927Y-115882342D01*
X135985927Y-115882342D01*
G37*
X135985927Y-115882342D02*
X135658380Y-115175655D01*
X135576624Y-114999707D01*
X135501535Y-114838958D01*
X135435812Y-114699114D01*
X135382151Y-114585882D01*
X135343249Y-114504970D01*
X135321803Y-114462084D01*
X135318652Y-114456787D01*
X135303797Y-114473258D01*
X135272847Y-114527240D01*
X135230564Y-114609922D01*
X135189286Y-114696153D01*
X135099302Y-114888973D01*
X135015369Y-115068010D01*
X134929903Y-115249373D01*
X134835317Y-115449174D01*
X134759870Y-115608100D01*
X134709436Y-115714908D01*
X134642365Y-115857928D01*
X134563283Y-116027237D01*
X134476821Y-116212914D01*
X134387604Y-116405036D01*
X134309684Y-116573300D01*
X134229362Y-116746759D01*
X134154452Y-116908057D01*
X134088038Y-117050592D01*
X134033205Y-117167761D01*
X133993034Y-117252962D01*
X133970611Y-117299589D01*
X133969020Y-117302749D01*
X133956658Y-117330153D01*
X133953964Y-117355555D01*
X133965576Y-117385598D01*
X133996128Y-117426924D01*
X134050255Y-117486176D01*
X134132593Y-117569997D01*
X134208296Y-117645649D01*
X134324995Y-117758702D01*
X134450026Y-117874265D01*
X134569775Y-117980080D01*
X134670626Y-118063886D01*
X134686933Y-118076622D01*
X134890999Y-118233743D01*
X135280872Y-117390822D01*
X135378248Y-117180519D01*
X135476073Y-116969666D01*
X135570541Y-116766439D01*
X135657844Y-116579013D01*
X135734175Y-116415564D01*
X135795727Y-116284268D01*
X135828336Y-116215121D01*
X135985927Y-115882342D01*
X135985927Y-115882342D01*
M02*
