M48
;DRILL file {KiCad 4.0.7} date Tuesday, December 19, 2017 'PMt' 12:55:22 PM
;FORMAT={-:-/ absolute / inch / decimal}
FMAT,2
INCH,TZ
T1C0.016
T2C0.031
T3C0.039
T4C0.039
T5C0.051
%
G90
G05
M72
T1
X5.5625Y-2.894
X6.201Y-3.2835
T2
X5.27Y-2.98
X5.27Y-3.08
X5.27Y-3.18
X5.27Y-3.28
X5.57Y-2.98
X5.57Y-3.08
X5.57Y-3.18
X5.57Y-3.28
T3
X4.425Y-2.874
X4.425Y-2.974
X4.425Y-3.074
X4.425Y-3.174
X6.378Y-2.8705
X6.378Y-2.9705
X6.378Y-3.0705
X6.378Y-3.1705
T4
X4.6901Y-2.999
X4.6911Y-2.7985
X4.6911Y-3.199
X5.0839Y-2.999
X5.0849Y-2.7985
X5.0849Y-3.199
X5.2226Y-2.5995
X5.2241Y-2.799
X5.6164Y-2.5995
X5.6179Y-2.799
X5.7631Y-2.7995
X5.7636Y-2.9995
X5.7646Y-3.199
X6.1569Y-2.7995
X6.1574Y-2.9995
X6.1584Y-3.199
T5
X5.315Y-3.585
X5.4134Y-3.4866
X5.5119Y-3.585
T0
M30
